<?xml version="1.0" standalone="no"?>
<!DOCTYPE svg PUBLIC "-//W3C//DTD SVG 20010904//EN"
 "http://www.w3.org/TR/2001/REC-SVG-20010904/DTD/svg10.dtd">
<svg version="1.0" xmlns="http://www.w3.org/2000/svg"
 width="1024.000000pt" height="1024.000000pt" viewBox="0 0 1024.000000 1024.000000"
 preserveAspectRatio="xMidYMid meet">
<metadata>
Created by potrace 1.11, written by Peter Selinger 2001-2013
</metadata>
<g transform="translate(0.000000,1024.000000) scale(0.100000,-0.100000)"
fill="#000000" stroke="none">
<path d="M4440 9829 c-826 -58 -1632 -357 -2285 -847 -963 -723 -1564 -1769
-1711 -2977 -21 -181 -30 -604 -15 -790 74 -932 413 -1764 1010 -2480 108
-130 397 -416 536 -531 585 -484 1280 -804 2025 -933 279 -48 380 -56 735 -55
374 0 516 13 830 74 520 102 1052 316 1489 597 l69 45 741 -740 c408 -407 761
-753 786 -769 73 -49 164 -91 247 -115 64 -18 103 -22 213 -22 160 0 222 14
355 79 114 56 200 126 279 226 236 298 260 689 64 1024 -34 59 -157 187 -759
790 -396 396 -719 723 -719 726 0 4 43 78 96 165 328 541 527 1138 601 1796
23 210 23 656 0 866 -121 1083 -593 2022 -1382 2749 -858 790 -2040 1204
-3205 1122z m695 -414 c533 -55 1053 -220 1520 -483 107 -60 345 -215 345
-225 0 -4 26 -47 58 -95 148 -219 268 -431 403 -707 295 -605 473 -1234 539
-1905 21 -209 24 -593 6 -744 -64 -546 -292 -1052 -677 -1501 -94 -110 -307
-319 -409 -401 -477 -387 -1032 -627 -1615 -700 -155 -19 -480 -21 -640 -4
-857 92 -1615 521 -2132 1207 -542 721 -749 1669 -542 2487 186 737 746 1293
1527 1516 276 79 481 105 755 97 267 -7 472 -56 707 -168 615 -294 1028 -871
1101 -1540 14 -128 6 -407 -16 -539 -107 -647 -493 -1139 -1030 -1315 -233
-76 -498 -76 -730 1 -44 14 -108 39 -141 54 -332 150 -469 477 -323 769 31 63
66 107 183 231 153 162 186 212 186 280 0 61 -25 106 -99 180 -148 147 -229
175 -327 115 -129 -80 -246 -311 -305 -602 -33 -166 -38 -448 -10 -612 36
-214 115 -411 221 -557 280 -384 528 -505 1095 -534 278 -15 426 4 662 82 267
88 557 256 798 462 236 201 459 466 610 721 263 445 398 916 412 1438 l6 207
-57 -34 c-136 -82 -311 -61 -423 50 -165 165 -119 444 92 551 60 31 170 42
241 24 25 -7 48 -10 50 -8 7 7 -95 313 -142 425 -174 414 -455 810 -772 1085
-353 306 -737 499 -1193 601 -218 48 -311 58 -609 64 -165 3 -270 8 -250 13
33 7 239 26 365 33 105 6 415 -5 560 -19z m144 -600 c523 -108 1028 -437 1371
-893 134 -178 161 -254 128 -364 -16 -54 -88 -132 -140 -153 -62 -25 -156 -23
-213 5 -48 23 -63 40 -170 184 -98 132 -178 218 -298 322 -297 255 -602 390
-961 424 -154 15 -228 60 -272 165 -17 41 -18 124 -3 179 13 48 103 140 150
155 56 17 269 5 408 -24z m2076 -385 c10 -11 16 -20 13 -20 -3 0 -13 9 -23 20
-10 11 -16 20 -13 20 3 0 13 -9 23 -20z m-5465 -224 c0 -2 -8 -10 -17 -17 -16
-13 -17 -12 -4 4 13 16 21 21 21 13z m5745 -56 c10 -11 16 -20 13 -20 -3 0
-13 9 -23 20 -10 11 -16 20 -13 20 3 0 13 -9 23 -20z m76 -87 c13 -16 12 -17
-3 -4 -10 7 -18 15 -18 17 0 8 8 3 21 -13z m-6884 -2735 c-3 -8 -6 -5 -6 6 -1
11 2 17 5 13 3 -3 4 -12 1 -19z m6913 -2312 c0 -2 -8 -10 -17 -17 -16 -13 -17
-12 -4 4 13 16 21 21 21 13z m-60 -69 c0 -2 -10 -12 -22 -23 l-23 -19 19 23
c18 21 26 27 26 19z m-100 -110 c0 -1 -39 -41 -87 -87 l-88 -85 85 88 c79 81
90 92 90 84z m-5479 -204 c13 -16 12 -17 -3 -4 -10 7 -18 15 -18 17 0 8 8 3
21 -13z m5239 -27 c0 -2 -8 -10 -17 -17 -16 -13 -17 -12 -4 4 13 16 21 21 21
13z m-70 -59 c0 -2 -10 -12 -22 -23 l-23 -19 19 23 c18 21 26 27 26 19z m-60
-51 c0 -2 -8 -10 -17 -17 -16 -13 -17 -12 -4 4 13 16 21 21 21 13z m-2597
-883 c-7 -2 -19 -2 -25 0 -7 3 -2 5 12 5 14 0 19 -2 13 -5z m270 0 c-7 -2 -21
-2 -30 0 -10 3 -4 5 12 5 17 0 24 -2 18 -5z"/>
</g>
</svg>
